<svg xmlns="http://www.w3.org/2000/svg" xmlns:xlink="http://www.w3.org/1999/xlink" contentStyleType="text/css" data-diagram-type="CLASS" height="899px" preserveAspectRatio="none" style="width:715px;height:899px;background:#FFFFFF;" version="1.1" viewBox="0 0 715 899" width="715px" zoomAndPan="magnify"><defs/><g><!--class Algorithm--><g class="entity" data-entity="Algorithm" data-source-line="11" data-uid="ent0002" id="entity_Algorithm"><rect fill="#F0F0F0" height="128.4375" rx="2.5" ry="2.5" style="stroke:#181818;stroke-width:0.5;" width="125.2334" x="369.5" y="7"/><ellipse cx="402.0126" cy="24.8047" fill="#A9DCDF" rx="9" ry="9" style="stroke:#181818;stroke-width:1;"/><path d="M401.3251,21.7422 L400.5751,25.0234 L402.0751,25.0234 L401.3251,21.7422 Z M400.3563,20.2891 L402.2938,20.2891 L404.4657,28.3047 L402.872,28.3047 L402.372,26.3203 L400.2626,26.3203 L399.7782,28.3047 L398.1845,28.3047 L400.3563,20.2891 Z " fill="#000000"/><text fill="#000000" font-family="sans-serif" font-size="11" font-style="italic" lengthAdjust="spacing" textLength="30.3467" x="430.1114" y="22.2104">&#171;old&#187;</text><text fill="#000000" font-family="sans-serif" font-size="11" font-style="italic" lengthAdjust="spacing" textLength="53.8721" x="418.3487" y="35.0151">Algorithm</text><line style="stroke:#181818;stroke-width:0.5;" x1="370.5" x2="493.7334" y1="42.6094" y2="42.6094"/><line style="stroke:#181818;stroke-width:0.5;" x1="370.5" x2="493.7334" y1="50.6094" y2="50.6094"/><text fill="#000000" font-family="sans-serif" font-size="11" lengthAdjust="spacing" textLength="70.646" x="375.5" y="64.8198">+LoadData()</text><text fill="#000000" font-family="sans-serif" font-size="11" lengthAdjust="spacing" textLength="62.1274" x="375.5" y="77.6245">+Execute()</text><text fill="#000000" font-family="sans-serif" font-size="11" lengthAdjust="spacing" textLength="72.5742" x="375.5" y="90.4292">+SetOption()</text><text fill="#000000" font-family="sans-serif" font-size="11" lengthAdjust="spacing" textLength="113.2334" x="375.5" y="103.2339">#LoadDataInternal()</text><text fill="#000000" font-family="sans-serif" font-size="11" lengthAdjust="spacing" textLength="104.7148" x="375.5" y="116.0386">#ExecuteInternal()</text><text fill="#000000" font-family="sans-serif" font-size="11" lengthAdjust="spacing" textLength="78.1387" x="375.5" y="128.8433">#ResetState()</text></g><!--class CindAlgorithm--><g class="entity" data-entity="CindAlgorithm" data-source-line="20" data-uid="ent0003" id="entity_CindAlgorithm"><rect fill="#F0F0F0" height="115.6328" rx="2.5" ry="2.5" style="stroke:#181818;stroke-width:0.5;" width="225.7319" x="178" y="208.5"/><ellipse cx="247.8345" cy="226.3047" fill="#ADD1B2" rx="9" ry="9" style="stroke:#181818;stroke-width:1;"/><path d="M249.147,230.0703 Q248.772,230.2734 248.3501,230.3672 Q247.9438,230.4609 247.4751,230.4609 Q245.8657,230.4609 245.0063,229.3984 Q244.147,228.3203 244.147,226.3047 Q244.147,224.2734 245.0063,223.2109 Q245.8657,222.1328 247.4751,222.1328 Q247.9438,222.1328 248.3501,222.2422 Q248.772,222.3359 249.147,222.5234 L249.147,224.2891 Q248.7251,223.9141 248.3345,223.7422 Q247.9595,223.5703 247.5532,223.5703 Q246.6938,223.5703 246.2407,224.2578 Q245.8032,224.9453 245.8032,226.3047 Q245.8032,227.6641 246.2407,228.3516 Q246.6938,229.0391 247.5532,229.0391 Q247.9595,229.0391 248.3345,228.8672 Q248.7251,228.6953 249.147,228.3047 L249.147,230.0703 Z " fill="#000000"/><text fill="#000000" font-family="sans-serif" font-size="11" font-style="italic" lengthAdjust="spacing" textLength="30.3467" x="289.4426" y="223.7104">&#171;old&#187;</text><text fill="#000000" font-family="sans-serif" font-size="11" lengthAdjust="spacing" textLength="78.563" x="265.3345" y="236.5151">CindAlgorithm</text><line style="stroke:#181818;stroke-width:0.5;" x1="179" x2="402.7319" y1="244.1094" y2="244.1094"/><text fill="#000000" font-family="sans-serif" font-size="11" lengthAdjust="spacing" textLength="195.9858" x="184" y="258.3198">-spider_algo_ : unique_ptr&lt;Spider&gt;</text><text fill="#000000" font-family="sans-serif" font-size="11" lengthAdjust="spacing" textLength="213.7319" x="184" y="271.1245">-cind_miner_ : unique_ptr&lt;CindMiner&gt;</text><line style="stroke:#181818;stroke-width:0.5;" x1="179" x2="402.7319" y1="277.7188" y2="277.7188"/><text fill="#000000" font-family="sans-serif" font-size="11" lengthAdjust="spacing" textLength="64.4961" x="184" y="291.9292">+AINDList()</text><text fill="#000000" font-family="sans-serif" font-size="11" lengthAdjust="spacing" textLength="64.6519" x="184" y="304.7339">+CINDList()</text><text fill="#000000" font-family="sans-serif" font-size="11" lengthAdjust="spacing" textLength="104.7148" x="184" y="317.5386">#ExecuteInternal()</text></g><!--class CINDVerifier--><g class="entity" data-entity="CINDVerifier" data-source-line="28" data-uid="ent0004" id="entity_CINDVerifier"><rect fill="#AAFFAA" height="141.2422" rx="2.5" ry="2.5" style="stroke:#181818;stroke-width:0.5;" width="269.0229" x="439.5" y="196"/><ellipse cx="536.4048" cy="213.8047" fill="#ADD1B2" rx="9" ry="9" style="stroke:#181818;stroke-width:1;"/><path d="M537.7173,217.5703 Q537.3423,217.7734 536.9204,217.8672 Q536.5142,217.9609 536.0454,217.9609 Q534.436,217.9609 533.5767,216.8984 Q532.7173,215.8203 532.7173,213.8047 Q532.7173,211.7734 533.5767,210.7109 Q534.436,209.6328 536.0454,209.6328 Q536.5142,209.6328 536.9204,209.7422 Q537.3423,209.8359 537.7173,210.0234 L537.7173,211.7891 Q537.2954,211.4141 536.9048,211.2422 Q536.5298,211.0703 536.1235,211.0703 Q535.2642,211.0703 534.811,211.7578 Q534.3735,212.4453 534.3735,213.8047 Q534.3735,215.1641 534.811,215.8516 Q535.2642,216.5391 536.1235,216.5391 Q536.5298,216.5391 536.9048,216.3672 Q537.2954,216.1953 537.7173,215.8047 L537.7173,217.5703 Z " fill="#000000"/><text fill="#000000" font-family="sans-serif" font-size="11" font-style="italic" lengthAdjust="spacing" textLength="36.314" x="569.6045" y="211.2104">&#171;new&#187;</text><text fill="#000000" font-family="sans-serif" font-size="11" lengthAdjust="spacing" textLength="67.7134" x="553.9048" y="224.0151">CINDVerifier</text><line style="stroke:#181818;stroke-width:0.5;" x1="440.5" x2="707.5229" y1="231.6094" y2="231.6094"/><text fill="#000000" font-family="sans-serif" font-size="11" lengthAdjust="spacing" textLength="197.2051" x="445.5" y="245.8198">-condition_values_ : vector&lt;string&gt;</text><text fill="#000000" font-family="sans-serif" font-size="11" lengthAdjust="spacing" textLength="257.0229" x="445.5" y="258.6245">-violating_clusters_ : vector&lt;ViolatingCluster&gt;</text><line style="stroke:#181818;stroke-width:0.5;" x1="440.5" x2="707.5229" y1="265.2188" y2="265.2188"/><text fill="#000000" font-family="sans-serif" font-size="11" lengthAdjust="spacing" textLength="48.5708" x="445.5" y="279.4292">+Holds()</text><text fill="#000000" font-family="sans-serif" font-size="11" lengthAdjust="spacing" textLength="102.8511" x="445.5" y="292.2339">+GetRealValidity()</text><text fill="#000000" font-family="sans-serif" font-size="11" lengthAdjust="spacing" textLength="139.8257" x="445.5" y="305.0386">+GetRealCompleteness()</text><text fill="#000000" font-family="sans-serif" font-size="11" lengthAdjust="spacing" textLength="130.6089" x="445.5" y="317.8433">+GetViolatingClusters()</text><text fill="#000000" font-family="sans-serif" font-size="11" lengthAdjust="spacing" textLength="72.4292" x="445.5" y="330.6479">-VerifyCIND()</text></g><!--class CindMiner--><g class="entity" data-entity="CindMiner" data-source-line="38" data-uid="ent0005" id="entity_CindMiner"><rect fill="#F0F0F0" height="128.4375" rx="2.5" ry="2.5" style="stroke:#181818;stroke-width:0.5;" width="177.7305" x="202" y="411"/><ellipse cx="259.3655" cy="428.8047" fill="#A9DCDF" rx="9" ry="9" style="stroke:#181818;stroke-width:1;"/><path d="M258.678,425.7422 L257.928,429.0234 L259.428,429.0234 L258.678,425.7422 Z M257.7092,424.2891 L259.6467,424.2891 L261.8186,432.3047 L260.2249,432.3047 L259.7249,430.3203 L257.6155,430.3203 L257.1311,432.3047 L255.5374,432.3047 L257.7092,424.2891 Z " fill="#000000"/><text fill="#000000" font-family="sans-serif" font-size="11" font-style="italic" lengthAdjust="spacing" textLength="30.3467" x="289.4419" y="426.2104">&#171;old&#187;</text><text fill="#000000" font-family="sans-serif" font-size="11" font-style="italic" lengthAdjust="spacing" textLength="55.4995" x="276.8655" y="439.0151">CindMiner</text><line style="stroke:#181818;stroke-width:0.5;" x1="203" x2="378.7305" y1="446.6094" y2="446.6094"/><text fill="#000000" font-family="sans-serif" font-size="11" lengthAdjust="spacing" textLength="142.436" x="208" y="460.8198">#tables_ : EncodedTables</text><text fill="#000000" font-family="sans-serif" font-size="11" lengthAdjust="spacing" textLength="129.3735" x="208" y="473.6245">#min_validity_ : double</text><text fill="#000000" font-family="sans-serif" font-size="11" lengthAdjust="spacing" textLength="165.7305" x="208" y="486.4292">#min_completeness_ : double</text><line style="stroke:#181818;stroke-width:0.5;" x1="203" x2="378.7305" y1="493.0234" y2="493.0234"/><text fill="#000000" font-family="sans-serif" font-size="11" lengthAdjust="spacing" textLength="62.1274" x="208" y="507.2339">+Execute()</text><text fill="#000000" font-family="sans-serif" font-size="11" lengthAdjust="spacing" textLength="95.9438" x="208" y="520.0386">#ExecuteSingle()</text><text fill="#000000" font-family="sans-serif" font-size="11" lengthAdjust="spacing" textLength="114.6729" x="208" y="532.8433">#ClassifyAttributes()</text></g><!--class Cinderella--><g class="entity" data-entity="Cinderella" data-source-line="47" data-uid="ent0006" id="entity_Cinderella"><rect fill="#FFFFAA" height="102.8281" rx="2.5" ry="2.5" style="stroke:#181818;stroke-width:0.5;" width="132.9194" x="115.5" y="600"/><ellipse cx="149.7304" cy="617.8047" fill="#ADD1B2" rx="9" ry="9" style="stroke:#181818;stroke-width:1;"/><path d="M151.0429,621.5703 Q150.6679,621.7734 150.246,621.8672 Q149.8398,621.9609 149.371,621.9609 Q147.7617,621.9609 146.9023,620.8984 Q146.0429,619.8203 146.0429,617.8047 Q146.0429,615.7734 146.9023,614.7109 Q147.7617,613.6328 149.371,613.6328 Q149.8398,613.6328 150.246,613.7422 Q150.6679,613.8359 151.0429,614.0234 L151.0429,615.7891 Q150.621,615.4141 150.2304,615.2422 Q149.8554,615.0703 149.4492,615.0703 Q148.5898,615.0703 148.1367,615.7578 Q147.6992,616.4453 147.6992,617.8047 Q147.6992,619.1641 148.1367,619.8516 Q148.5898,620.5391 149.4492,620.5391 Q149.8554,620.5391 150.2304,620.3672 Q150.621,620.1953 151.0429,619.8047 L151.0429,621.5703 Z " fill="#000000"/><text fill="#000000" font-family="sans-serif" font-size="11" font-style="italic" lengthAdjust="spacing" textLength="61.7407" x="164.4483" y="615.2104">&#171;modified&#187;</text><text fill="#000000" font-family="sans-serif" font-size="11" lengthAdjust="spacing" textLength="55.6016" x="167.5179" y="628.0151">Cinderella</text><line style="stroke:#181818;stroke-width:0.5;" x1="116.5" x2="247.4194" y1="635.6094" y2="635.6094"/><line style="stroke:#181818;stroke-width:0.5;" x1="116.5" x2="247.4194" y1="643.6094" y2="643.6094"/><text fill="#000000" font-family="sans-serif" font-size="11" lengthAdjust="spacing" textLength="95.9438" x="121.5" y="657.8198">#ExecuteSingle()</text><text fill="#000000" font-family="sans-serif" font-size="11" lengthAdjust="spacing" textLength="75.3564" x="121.5" y="670.6245">-GetBaskets()</text><text fill="#000000" font-family="sans-serif" font-size="11" lengthAdjust="spacing" textLength="90.3794" x="121.5" y="683.4292">-GetConditions()</text><text fill="#000000" font-family="sans-serif" font-size="11" lengthAdjust="spacing" textLength="120.9194" x="121.5" y="696.2339">-CreateNewItemsets()</text></g><!--class PliCind--><g class="entity" data-entity="PliCind" data-source-line="54" data-uid="ent0007" id="entity_PliCind"><rect fill="#FFFFAA" height="102.8281" rx="2.5" ry="2.5" style="stroke:#181818;stroke-width:0.5;" width="235.0347" x="339.5" y="600"/><ellipse cx="424.397" cy="617.8047" fill="#ADD1B2" rx="9" ry="9" style="stroke:#181818;stroke-width:1;"/><path d="M425.7095,621.5703 Q425.3345,621.7734 424.9126,621.8672 Q424.5063,621.9609 424.0376,621.9609 Q422.4282,621.9609 421.5688,620.8984 Q420.7095,619.8203 420.7095,617.8047 Q420.7095,615.7734 421.5688,614.7109 Q422.4282,613.6328 424.0376,613.6328 Q424.5063,613.6328 424.9126,613.7422 Q425.3345,613.8359 425.7095,614.0234 L425.7095,615.7891 Q425.2876,615.4141 424.897,615.2422 Q424.522,615.0703 424.1157,615.0703 Q423.2563,615.0703 422.8032,615.7578 Q422.3657,616.4453 422.3657,617.8047 Q422.3657,619.1641 422.8032,619.8516 Q423.2563,620.5391 424.1157,620.5391 Q424.522,620.5391 424.897,620.3672 Q425.2876,620.1953 425.7095,619.8047 L425.7095,621.5703 Z " fill="#000000"/><text fill="#000000" font-family="sans-serif" font-size="11" font-style="italic" lengthAdjust="spacing" textLength="61.7407" x="439.897" y="615.2104">&#171;modified&#187;</text><text fill="#000000" font-family="sans-serif" font-size="11" lengthAdjust="spacing" textLength="37.4365" x="452.0491" y="628.0151">PliCind</text><line style="stroke:#181818;stroke-width:0.5;" x1="340.5" x2="573.5347" y1="635.6094" y2="635.6094"/><text fill="#000000" font-family="sans-serif" font-size="11" lengthAdjust="spacing" textLength="223.0347" x="345.5" y="649.8198">-attr_idx_to_pls_ : vector&lt;PLSetShared&gt;</text><line style="stroke:#181818;stroke-width:0.5;" x1="340.5" x2="573.5347" y1="656.4141" y2="656.4141"/><text fill="#000000" font-family="sans-serif" font-size="11" lengthAdjust="spacing" textLength="95.9438" x="345.5" y="670.6245">#ExecuteSingle()</text><text fill="#000000" font-family="sans-serif" font-size="11" lengthAdjust="spacing" textLength="60.4141" x="345.5" y="683.4292">-MakePLs()</text><text fill="#000000" font-family="sans-serif" font-size="11" lengthAdjust="spacing" textLength="55.897" x="345.5" y="696.2339">-Analyze()</text></g><!--class ItemsetNode--><g class="entity" data-entity="ItemsetNode" data-source-line="61" data-uid="ent0008" id="entity_ItemsetNode"><rect fill="#FFFFAA" height="115.6328" rx="2.5" ry="2.5" style="stroke:#181818;stroke-width:0.5;" width="293.6226" x="7" y="777"/><ellipse cx="114.7813" cy="794.8047" fill="#ADD1B2" rx="9" ry="9" style="stroke:#181818;stroke-width:1;"/><path d="M116.0938,798.5703 Q115.7188,798.7734 115.2969,798.8672 Q114.8906,798.9609 114.4219,798.9609 Q112.8125,798.9609 111.9531,797.8984 Q111.0938,796.8203 111.0938,794.8047 Q111.0938,792.7734 111.9531,791.7109 Q112.8125,790.6328 114.4219,790.6328 Q114.8906,790.6328 115.2969,790.7422 Q115.7188,790.8359 116.0938,791.0234 L116.0938,792.7891 Q115.6719,792.4141 115.2813,792.2422 Q114.9063,792.0703 114.5,792.0703 Q113.6406,792.0703 113.1875,792.7578 Q112.75,793.4453 112.75,794.8047 Q112.75,796.1641 113.1875,796.8516 Q113.6406,797.5391 114.5,797.5391 Q114.9063,797.5391 115.2813,797.3672 Q115.6719,797.1953 116.0938,796.8047 L116.0938,798.5703 Z " fill="#000000"/><text fill="#000000" font-family="sans-serif" font-size="11" font-style="italic" lengthAdjust="spacing" textLength="61.7407" x="136.6909" y="792.2104">&#171;modified&#187;</text><text fill="#000000" font-family="sans-serif" font-size="11" lengthAdjust="spacing" textLength="70.5601" x="132.2813" y="805.0151">ItemsetNode</text><line style="stroke:#181818;stroke-width:0.5;" x1="8" x2="299.6226" y1="812.6094" y2="812.6094"/><text fill="#000000" font-family="sans-serif" font-size="11" lengthAdjust="spacing" textLength="228.6045" x="13" y="826.8198">-parent_node_ : weak_ptr&lt;ItemsetNode&gt;</text><text fill="#000000" font-family="sans-serif" font-size="11" lengthAdjust="spacing" textLength="281.6226" x="13" y="839.6245">-child_nodes_ : unordered_map&lt;Item, shared_ptr&gt;</text><line style="stroke:#181818;stroke-width:0.5;" x1="8" x2="299.6226" y1="846.2188" y2="846.2188"/><text fill="#000000" font-family="sans-serif" font-size="11" lengthAdjust="spacing" textLength="82.3389" x="13" y="860.4292">+CreateChild()</text><text fill="#000000" font-family="sans-serif" font-size="11" lengthAdjust="spacing" textLength="78.6436" x="13" y="873.2339">+GetValidity()</text><text fill="#000000" font-family="sans-serif" font-size="11" lengthAdjust="spacing" textLength="115.6182" x="13" y="886.0386">+GetCompleteness()</text></g><!--class PositionListsSet--><g class="entity" data-entity="PositionListsSet" data-source-line="69" data-uid="ent0009" id="entity_PositionListsSet"><rect fill="#FFFFAA" height="102.8281" rx="2.5" ry="2.5" style="stroke:#181818;stroke-width:0.5;" width="297.0386" x="336.5" y="783.5"/><ellipse cx="438.1475" cy="801.3047" fill="#ADD1B2" rx="9" ry="9" style="stroke:#181818;stroke-width:1;"/><path d="M439.46,805.0703 Q439.085,805.2734 438.6631,805.3672 Q438.2568,805.4609 437.7881,805.4609 Q436.1787,805.4609 435.3193,804.3984 Q434.46,803.3203 434.46,801.3047 Q434.46,799.2734 435.3193,798.2109 Q436.1787,797.1328 437.7881,797.1328 Q438.2568,797.1328 438.6631,797.2422 Q439.085,797.3359 439.46,797.5234 L439.46,799.2891 Q439.0381,798.9141 438.6475,798.7422 Q438.2725,798.5703 437.8662,798.5703 Q437.0068,798.5703 436.5537,799.2578 Q436.1162,799.9453 436.1162,801.3047 Q436.1162,802.6641 436.5537,803.3516 Q437.0068,804.0391 437.8662,804.0391 Q438.2725,804.0391 438.6475,803.8672 Q439.0381,803.6953 439.46,803.3047 L439.46,805.0703 Z " fill="#000000"/><text fill="#000000" font-family="sans-serif" font-size="11" font-style="italic" lengthAdjust="spacing" textLength="61.7407" x="467.8989" y="798.7104">&#171;modified&#187;</text><text fill="#000000" font-family="sans-serif" font-size="11" lengthAdjust="spacing" textLength="86.2437" x="455.6475" y="811.5151">PositionListsSet</text><line style="stroke:#181818;stroke-width:0.5;" x1="337.5" x2="632.5386" y1="819.1094" y2="819.1094"/><text fill="#000000" font-family="sans-serif" font-size="11" lengthAdjust="spacing" textLength="285.0386" x="342.5" y="833.3198">-clusters_ : unordered_map&lt;ClusterValue, Cluster&gt;</text><line style="stroke:#181818;stroke-width:0.5;" x1="337.5" x2="632.5386" y1="839.9141" y2="839.9141"/><text fill="#000000" font-family="sans-serif" font-size="11" lengthAdjust="spacing" textLength="66.478" x="342.5" y="854.1245">+Intersect()</text><text fill="#000000" font-family="sans-serif" font-size="11" lengthAdjust="spacing" textLength="49.4355" x="342.5" y="866.9292">+Probe()</text><text fill="#000000" font-family="sans-serif" font-size="11" lengthAdjust="spacing" textLength="72.1714" x="342.5" y="879.7339">+CreateFor()</text></g><!--reverse link Algorithm to CindAlgorithm--><g class="link" data-entity-1="Algorithm" data-entity-2="CindAlgorithm" data-source-line="76" data-uid="lnk10" id="link_Algorithm_CindAlgorithm"><path codeLine="76" d="M375.4283,149.6366 C358.2283,173.2366 349.41,185.35 332.62,208.38" fill="none" id="Algorithm-backto-CindAlgorithm" style="stroke:#181818;stroke-width:1;"/><polygon fill="none" points="386.03,135.09,370.5794,146.1027,380.2771,153.1705,386.03,135.09" style="stroke:#181818;stroke-width:1;"/></g><!--reverse link Algorithm to CINDVerifier--><g class="link" data-entity-1="Algorithm" data-entity-2="CINDVerifier" data-source-line="77" data-uid="lnk11" id="link_Algorithm_CINDVerifier"><path codeLine="77" d="M488.9475,149.6032 C503.1875,169.0132 508.3,175.98 522.85,195.8" fill="none" id="Algorithm-backto-CINDVerifier" style="stroke:#181818;stroke-width:1;"/><polygon fill="none" points="478.3,135.09,484.1097,153.1523,493.7852,146.054,478.3,135.09" style="stroke:#181818;stroke-width:1;"/></g><!--reverse link CindMiner to Cinderella--><g class="link" data-entity-1="CindMiner" data-entity-2="Cinderella" data-source-line="78" data-uid="lnk12" id="link_CindMiner_Cinderella"><path codeLine="78" d="M241.8028,554.7557 C229.3828,574.6357 225.39,581.03 213.61,599.9" fill="none" id="CindMiner-backto-Cinderella" style="stroke:#181818;stroke-width:1;"/><polygon fill="none" points="251.34,539.49,236.7142,551.5766,246.8913,557.9348,251.34,539.49" style="stroke:#181818;stroke-width:1;"/></g><!--reverse link CindMiner to PliCind--><g class="link" data-entity-1="CindMiner" data-entity-2="PliCind" data-source-line="79" data-uid="lnk13" id="link_CindMiner_PliCind"><path codeLine="79" d="M363.8058,552.5321 C382.7158,572.4121 390.92,581.03 408.86,599.9" fill="none" id="CindMiner-backto-PliCind" style="stroke:#181818;stroke-width:1;"/><polygon fill="none" points="351.4,539.49,359.4584,556.6674,368.1531,548.3969,351.4,539.49" style="stroke:#181818;stroke-width:1;"/></g><!--link CindAlgorithm to CindMiner--><g class="link" data-entity-1="CindAlgorithm" data-entity-2="CindMiner" data-source-line="80" data-uid="lnk14" id="link_CindAlgorithm_CindMiner"><path codeLine="80" d="M291,324.75 C291,351.48 291,377.39 291,404.83" fill="none" id="CindAlgorithm-to-CindMiner" style="stroke:#181818;stroke-width:1;stroke-dasharray:7,7;"/><polygon fill="#181818" points="291,410.83,295,401.83,291,405.83,287,401.83,291,410.83" style="stroke:#181818;stroke-width:1;"/><text fill="#000000" font-family="sans-serif" font-size="11" lengthAdjust="spacing" textLength="25.2012" x="292" y="378.2104">uses</text></g><!--link Cinderella to ItemsetNode--><g class="link" data-entity-1="Cinderella" data-entity-2="ItemsetNode" data-source-line="81" data-uid="lnk15" id="link_Cinderella_ItemsetNode"><path codeLine="81" d="M174.2,703.06 C170.67,725.92 167.4063,747.1304 163.7563,770.7504" fill="none" id="Cinderella-to-ItemsetNode" style="stroke:#181818;stroke-width:1;stroke-dasharray:7,7;"/><polygon fill="#181818" points="162.84,776.68,168.1675,768.3964,163.6036,771.7387,160.2614,767.1747,162.84,776.68" style="stroke:#181818;stroke-width:1;"/><text fill="#000000" font-family="sans-serif" font-size="11" lengthAdjust="spacing" textLength="25.2012" x="170" y="744.2104">uses</text></g><!--link PliCind to PositionListsSet--><g class="link" data-entity-1="PliCind" data-entity-2="PositionListsSet" data-source-line="82" data-uid="lnk16" id="link_PliCind_PositionListsSet"><path codeLine="82" d="M464.8,703.06 C468.67,728.13 472.4173,752.3898 476.2773,777.4698" fill="none" id="PliCind-to-PositionListsSet" style="stroke:#181818;stroke-width:1;stroke-dasharray:7,7;"/><polygon fill="#181818" points="477.19,783.4,479.7744,773.8963,476.4294,778.4582,471.8675,775.1132,477.19,783.4" style="stroke:#181818;stroke-width:1;"/><text fill="#000000" font-family="sans-serif" font-size="11" lengthAdjust="spacing" textLength="25.2012" x="472" y="744.2104">uses</text></g><!--SRC=[xLTBJ-Cm4BxpAopr0e8WsECAHGe1TYiLjgAeryXD1h3gsbdRuTNbl-_OIHg7jhlQKusqHk8mCqvd_CtZ6prdegIABaZEgTQ9COhDAWF3N8e9UmDoGdPwzWZHVHUlf33EizCl98ZJSx60Urfnqpbv6eYBePzreCaoF1VjEQVv_479IXIfv5ATdKbUn34PN9tOlp1TNCY2tJEe_SIJ9C6vAE3PUfSaE_MkTV4z_7BP8A8pRHJDJLD02N-GYfd71McJTDdSEnn9MbnGG_SFMidb2-JO-3l11CoFqZ0fzWy2ZNxGHZ4K1fIWVENye8ccKuJd_2reC1D3cpT_tyD_DMuf4yLsx29TiW9KHj4Y8rz99TZF2hBIgBE9qyIjOOxVoHPCe77Vplx0jPN7Etw4msHuSp5YsdHfbwuaeHRTUd9zW0yZc8Ao3LUHjh4j0meWGd9NC5lQsHFb5MYR7a-G6-p3s42OU5Ybq1EJd1gKP3clDCRhsqvRPLhhufsaq7Si3rrdIolw1kOMA9zIpZ3Erowv6aKg5oK70mAqxYa_HjHf8uVegyKskCnqwVSfADw70RNgGsjDRc3eZDU9UIboMK1nvmIj6hkQpLq7hpKgP8LgNvjx6AzPTDEEXDvb9fYDl1lBWzI-76RYQbNJmGInWJVrXneeu9oI7XzT_ZdU2AlodEev6DsJfMqByyIf0focD_0yDB3GxiR_4lrNDskqnfnPm3P35L7ClOmLBvcHMSdzaJ0U8MsSF5A55_u2x3MTmtZamPVWB7rz2xKcFnLyJG7SOEFS0Y4ksY1C9j32mlSCTEweeNUpuv6FZ1VELDT4KYfRoiWjQUak717j8BTVY5T4pbLZQk-61ga_yJTnX3u_22iDjpROiTIk8LhohB4Ajm3lyxW-aWtdcLfAU4HQJjS-YsEx6gkyUwcnaZDlOQm1lv8go8NnazIlj_VzYgB-AhX1xQqQgFNuL7kv7hdhkgR1DuhkiyV7iMUAAQ8TwVAcjxNm-qjji_kNQqUMzM-j5cedVmC0]--></g></svg>